HIERARCHY
ROOT Hips
{
	OFFSET 0.00000 0.00000 0.00000
	CHANNELS 6 Xposition Yposition Zposition Zrotation Yrotation Xrotation 
	JOINT LHipJoint
	{
		OFFSET 0 0 0
		CHANNELS 3 Zrotation Yrotation Xrotation
		JOINT LeftHip
		{
			OFFSET 1.37959 -1.78713 0.86582
			CHANNELS 3 Zrotation Yrotation Xrotation
			JOINT LeftKnee
			{
				OFFSET 2.54611 -6.99539 0.00000
				CHANNELS 3 Zrotation Yrotation Xrotation
				JOINT LeftAnkle
				{
					OFFSET 2.59951 -7.14211 0.00000
					CHANNELS 3 Zrotation Yrotation Xrotation
					JOINT LeftToe
					{
						OFFSET 0.18493 -0.50810 1.96120
						CHANNELS 3 Zrotation Yrotation Xrotation
						End Site
						{
							OFFSET 0.00000 -0.00000 1.02054
						}
					}
				}
			}
		}
	}
	JOINT RHipJoint
	{
		OFFSET 0 0 0
		CHANNELS 3 Zrotation Yrotation Xrotation
		JOINT RightHip
		{
			OFFSET -1.33564 -1.78713 0.86582
			CHANNELS 3 Zrotation Yrotation Xrotation
			JOINT RightKnee
			{
				OFFSET -2.52705 -6.94302 0.00000
				CHANNELS 3 Zrotation Yrotation Xrotation
				JOINT RightAnkle
				{
					OFFSET -2.55964 -7.03257 0.00000
					CHANNELS 3 Zrotation Yrotation Xrotation
					JOINT RightToe
					{
						OFFSET -0.25804 -0.70896 2.12109
						CHANNELS 3 Zrotation Yrotation Xrotation
						End Site
						{
							OFFSET -0.00000 -0.00000 1.11821
						}
					}
				}
			}
		}
	}
	JOINT lowerback
	{
		OFFSET 0 0 0
		CHANNELS 3 Zrotation Yrotation Xrotation
		JOINT Chest
		{
			OFFSET -0.02031 2.24248 -0.18900
			CHANNELS 3 Zrotation Yrotation Xrotation
			JOINT Chest2
			{
				OFFSET 0.08342 2.24689 -0.03799
				CHANNELS 3 Zrotation Yrotation Xrotation
				JOINT lowerneck
				{
					OFFSET 0 0 0
					CHANNELS 3 Zrotation Yrotation Xrotation
					JOINT Neck
					{
						OFFSET -0.11607 1.55844 0.24628
						CHANNELS 3 Zrotation Yrotation Xrotation
						JOINT Head
						{
							OFFSET 0.06877 1.60174 -0.17013
							CHANNELS 3 Zrotation Yrotation Xrotation
							End Site
							{
								OFFSET 0.03358 1.61266 -0.08543
							}
						}
					}
				}
				JOINT LeftCollar
				{
					OFFSET 0 0 0
					CHANNELS 3 Zrotation Yrotation Xrotation
					JOINT LeftShoulder
					{
						OFFSET 3.47537 0.55866 -0.72348
CHANNELS 3 Zrotation Xrotation Yrotation
						JOINT LeftElbow
						{
OFFSET 0 -5.381540 0.000000
CHANNELS 3 Zrotation Xrotation Yrotation
							JOINT LeftWrist
							{
OFFSET 0 -3.333120 0.000000
CHANNELS 3 Zrotation Xrotation Yrotation
								JOINT lhand
								{
									OFFSET 0 0 0
CHANNELS 3 Zrotation Xrotation Yrotation
									JOINT LFingers
									{
OFFSET 0 -0.710790 0.000000
CHANNELS 3 Zrotation Xrotation Yrotation
										End Site
										{
OFFSET 0 -0.573060 0.000000
										}
									}
								}
								JOINT LThumb
								{
OFFSET 0 0.000000 0.000000
CHANNELS 3 Zrotation Xrotation Yrotation
									End Site
									{
OFFSET 0 -0.581810 0.581810
									}
								}
							}
						}
					}
				}
				JOINT RightCollar
				{
					OFFSET 0 0 0
					CHANNELS 3 Zrotation Yrotation Xrotation
					JOINT RightShoulder
					{
						OFFSET -3.27844 0.90739 -0.35708
CHANNELS 3 Zrotation Xrotation Yrotation
						JOINT RightElbow
						{
OFFSET 0 -5.169540 0.000000
CHANNELS 3 Zrotation Xrotation Yrotation
							JOINT RightWrist
							{
OFFSET 0 -3.382870 0.000000
CHANNELS 3 Zrotation Xrotation Yrotation
								JOINT rhand
								{
									OFFSET 0 0 0
CHANNELS 3 Zrotation Xrotation Yrotation
									JOINT RFingers
									{
OFFSET 0 -0.817970 0.000000
CHANNELS 3 Zrotation Xrotation Yrotation
										End Site
										{
OFFSET 0 -0.659470 0.000000
										}
									}
								}
								JOINT RThumb
								{
OFFSET 0 0.000000 0.000000
CHANNELS 3 Zrotation Xrotation Yrotation
									End Site
									{
OFFSET 0 -0.669530 0.669530
									}
								}
							}
						}
					}
				}
			}
		}
	}
}
MOTION
Frames: 6
Frame Time: 0.008333333333333333
9.005600 17.960900 14.363900 -176.996000 1.713700 -179.419000 0.000000 0.000000 0.000000 -14.739400 -7.339700 -20.111300 2.295400 9.455900 27.232200 0.001200 -3.236700 -2.327400 0.079200 -1.815000 -4.994600 0.000000 0.000000 0.000000 20.367300 -0.845000 2.723100 -5.486900 -13.912000 42.886000 -0.091700 -7.355000 7.019600 -0.285500 -3.436600 9.496700 0.594100 3.698600 2.759000 0.080700 4.960900 0.409300 -0.427400 2.481600 -1.079100 -12.284400 -4.112200 -17.572900 4.642100 -4.287700 25.057300 3.065100 -2.837900 11.457800 0.000000 0.000000 0.000000 1.850100 6.629400 -6.179000 12.999600 -21.286600 2.453100 -5.566800 9.990400 -37.586400 0.000000 0.000000 0.000000 -7.125000 0.000000 0.000000 -46.845700 61.197300 21.014200 0.000000 0.000000 0.000000 -8.013600 -15.807500 17.830400 -22.941900 -34.025200 -7.105700 -20.849600 -31.677000 -31.071500 0.000000 0.000000 0.000000 7.125000 0.000000 -0.000000 6.014600 -2.672700 6.322900
8.987019 17.959197 14.294334 -176.993997 1.718057 -179.536696 0.000000 0.000000 0.000000 -14.916145 -7.199416 -19.759363 2.278171 9.422845 27.127225 0.007210 -3.238503 -2.611774 0.184375 -2.637922 -7.279608 0.000000 0.000000 0.000000 20.245597 -0.834382 2.068209 -5.795264 -14.220063 44.141242 -0.104371 -7.844616 7.482672 -0.410108 -4.061141 11.255431 0.635870 3.711672 2.897932 0.042787 4.980382 0.386963 -0.500722 2.490515 -1.172406 -12.536270 -4.093319 -17.778943 5.025188 -4.305980 25.464429 3.251110 -2.842958 11.671005 0.000000 0.000000 0.000000 2.023789 6.543557 -6.542155 13.053039 -21.364780 2.472582 -5.553979 9.851268 -37.548337 0.000000 0.000000 0.000000 -7.125000 0.000000 0.000000 -46.785900 61.173611 20.954000 0.000000 0.000000 0.000000 -7.945637 -15.911874 18.074557 -22.986625 -34.074132 -7.130792 -20.632087 -31.478870 -31.189396 0.000000 0.000000 0.000000 7.125000 0.000000 0.000000 6.154383 -2.748627 6.479461
8.968429 17.957497 14.224763 -176.992391 1.722358 -179.654651 0.000000 0.000000 0.000000 -15.093325 -7.059170 -19.406962 2.260920 9.389743 27.022105 0.013222 -3.240152 -2.896021 0.289115 -3.457573 -9.555527 0.000000 0.000000 0.000000 20.123409 -0.823926 1.413647 -6.103638 -14.528049 45.396359 -0.116951 -8.333930 7.944109 -0.534142 -4.682883 13.006271 0.677199 3.724594 3.037039 0.004994 4.999659 0.364906 -0.573672 2.499334 -1.265573 -12.787118 -4.074429 -17.984497 5.406259 -4.323893 25.870135 3.436234 -2.847928 11.883465 0.000000 0.000000 0.000000 2.197003 6.457560 -6.904903 13.106701 -21.443284 2.492148 -5.541639 9.712023 -37.509753 0.000000 0.000000 0.000000 -7.125000 0.000000 0.000000 -46.725896 61.149432 20.893141 0.000000 0.000000 0.000000 -7.878004 -16.016767 18.318851 -23.031281 -34.122988 -7.155845 -20.415091 -31.281055 -31.307265 0.000000 0.000000 0.000000 7.125000 0.000000 0.000000 6.293868 -2.824629 6.635714
8.947093 17.956696 14.153795 -177.109586 1.709636 -179.849977 0.000000 0.000000 0.000000 -15.400938 -6.930155 -18.915593 2.236830 9.342715 26.873457 0.019682 -3.195678 -3.142281 0.263673 -3.299359 -9.113691 0.000000 0.000000 0.000000 19.856063 -0.861840 0.857821 -6.415007 -14.812623 46.614139 -0.102176 -8.732794 7.916814 -0.486713 -4.467825 12.397657 0.586848 3.692942 3.228759 0.003241 4.957489 0.426609 -0.535208 2.479451 -1.317409 -12.732376 -4.053194 -18.043746 5.183888 -4.231789 25.850602 3.356300 -2.826191 11.872897 0.000000 0.000000 0.000000 2.227955 6.325590 -7.145654 13.226851 -21.618375 2.536421 -5.673308 9.538834 -37.315680 0.000000 0.000000 0.000000 -7.125000 0.000000 0.000000 -46.604694 60.978897 20.635411 0.000000 0.000000 0.000000 -7.909307 -16.277001 18.604126 -23.055471 -34.149382 -7.169418 -20.352437 -31.177432 -31.416848 0.000000 0.000000 0.000000 7.125000 0.000000 0.000000 6.344202 -2.923243 6.699921
8.925754 17.955953 14.082808 -177.227833 1.696905 -180.044985 0.000000 0.000000 0.000000 -15.709601 -6.801212 -18.424404 2.212765 9.295734 26.724960 0.026145 -3.151334 -3.388529 0.237969 -3.138827 -8.665437 0.000000 0.000000 0.000000 19.587469 -0.900240 0.301445 -6.726321 -15.096996 47.831435 -0.087257 -9.130806 7.886822 -0.438532 -4.247447 11.774247 0.495405 3.661273 3.419031 0.001370 4.915254 0.488740 -0.496135 2.459547 -1.368076 -12.676024 -4.032270 -18.100659 4.958618 -4.139913 25.827861 3.274976 -2.804630 11.860578 0.000000 0.000000 0.000000 2.258339 6.193211 -7.386154 13.347410 -21.794050 2.580854 -5.804270 9.366093 -37.123333 0.000000 0.000000 0.000000 -7.125000 0.000000 0.000000 -46.484992 60.809766 20.380082 0.000000 0.000000 0.000000 -7.940811 -16.537663 18.889653 -23.079872 -34.176004 -7.183109 -20.288787 -31.073576 -31.526468 0.000000 0.000000 0.000000 7.125000 0.000000 0.000000 6.395103 -3.021695 6.764722
8.903868 17.963967 14.008985 -177.502791 1.682631 -180.192731 0.000000 0.000000 0.000000 -16.174726 -6.683015 -17.959929 2.192481 9.255767 26.598899 0.032906 -3.126443 -3.632836 0.173311 -2.632884 -7.260946 0.000000 0.000000 0.000000 19.132811 -1.011174 -0.336819 -7.029527 -15.351471 48.976744 -0.050746 -9.401657 7.455102 -0.278365 -3.234559 8.946334 0.241081 3.627216 3.393638 -0.018112 4.863368 0.614700 -0.366369 2.436558 -1.244420 -12.379580 -4.057813 -17.809524 4.301373 -4.081816 25.327077 2.986446 -2.809188 11.587323 0.000000 0.000000 0.000000 2.204199 5.999889 -7.589192 13.528862 -22.056588 2.648968 -5.829762 9.260117 -37.188291 0.000000 0.000000 0.000000 -7.125000 0.000000 0.000000 -46.588866 60.849632 20.482352 0.000000 0.000000 0.000000 -8.002514 -16.862104 19.212591 -23.135615 -34.236655 -7.214461 -20.076884 -30.934945 -31.641610 0.000000 0.000000 0.000000 7.125000 0.000000 0.000000 6.530529 -3.095919 6.918028
